<svg version="1" xmlns="http://www.w3.org/2000/svg" width="1333.333" height="1333.333" viewBox="0 0 1000.000000 1000.000000"><path d="M125 391.5c0 .4 4.8 8.7 10.7 18.5l10.7 17.9 41.6.3c41.2.3 41.5.3 46.2 2.6 7.6 3.7 14.3 10.5 18 18 3 6 3.3 7.6 3.3 15.2 0 7.4-.4 9.3-2.9 14.5-3.8 7.6-10.5 14.3-18.1 18.1-5.9 2.9-6.2 2.9-26.2 3.2-11.2.2-20.3.6-20.3.9 0 .3 14 24.8 31.1 54.4l31.2 53.9h20.8c11.5 0 20.9-.2 20.9-.5 0-.2-9.9-17.8-22-39.1-12.1-21.2-22-38.8-22-39 0-.2 2.1-1.2 4.6-2.3 6.7-3 16.5-10.2 20.6-15.3 6.7-8.1 13.4-19.4 15.7-26.4 3.1-9.3 3.9-26.8 1.7-37.3-4.4-20.7-21.8-42.3-41.4-51.3-13.1-6-13.9-6.1-71.4-6.5-29.1-.3-52.8-.2-52.8.2zM552 392.2c.1.7 4.5 8.9 9.8 18.3l9.7 17 32.5.5c31.9.6 32.6.6 40.5 3.3 11.1 3.7 19.4 8.9 29.2 18.1 7.3 6.9 9 9.2 13.3 18 6.4 13 8.4 20.6 8.4 32.6 0 15.8-4.8 29.3-15.1 42.7-7.8 10.3-15.2 16.6-24.6 21.3-14.8 7.2-19.9 8-53.3 8h-29.3l-10.5 17.6c-5.8 9.6-10.6 17.9-10.6 18.5 0 1.2 63.7 1.2 79.5-.1 14-1.1 23.5-3.4 35.8-8.5 17.2-7.3 33.5-20.4 43.6-35 7.2-10.3 15.6-28.3 18.1-38.5 4.3-17.8 3.5-42.6-2.1-61.4-2.6-8.6-4.5-12.6-11.5-23.3-11.1-17.1-26.5-30.2-46.6-39.8-19-9-30.6-10.5-82.5-10.5-26.8 0-34.3.3-34.3 1.2zM832.8 392.7c-.8 1-19.4 32.5-41.2 69.9L752 530.8l.2 38.8.3 38.9h36l.3-34.1.2-34.2 42.6-73.3c23.5-40.4 42.9-74 43.1-74.7.4-.9-4-1.2-19.9-1.2-18.3 0-20.7.2-22 1.7zM311 416.3v24.2l54.9 54.9 55 55 14.8-14.2c8.1-7.7 24.5-23.8 36.3-35.6 11.8-11.9 21.8-21.6 22.2-21.6.5 0 .8 29.5.8 65.5V610h36V391.5l-54.3 54.3-54.2 54.2-54.7-54c-30-29.7-55.1-54-55.7-54-.8 0-1.1 7.5-1.1 24.3z"/></svg>